<svg width="90" height="85" xmlns="http://www.w3.org/2000/svg">
 <!-- Created with Method Draw - http://github.com/duopixel/Method-Draw/ -->

 <g>
  <title>background</title>
  <rect fill="#fff" id="canvas_background" height="87" width="92" y="-1" x="-1"/>
  <g display="none" overflow="visible" y="0" x="0" height="100%" width="100%" id="canvasGrid">
   <rect fill="url(#gridpattern)" stroke-width="0" y="0" x="0" height="100%" width="100%"/>
  </g>
 </g>
 <g>
  <title>Layer 1</title>
  <g id="svg_5">
   <path id="svg_4" d="m40.64477,38.64315c-2.03239,2.03239 -2.03239,5.32648 0,7.35725c2.03076,2.03239 5.32648,2.03239 7.35725,0c2.03239,-2.03239 2.03239,-5.32648 0,-7.35725c-2.03239,-2.03076 -5.32648,-2.03076 -7.35725,0zm3.67781,-36.64315c-22.2701,0 -40.32258,18.05248 -40.32258,40.32258s18.05248,40.32258 40.32258,40.32258s40.32258,-18.05248 40.32258,-40.32258s-18.05248,-40.32258 -40.32258,-40.32258zm20.50924,24.07161l-10.72613,23.47002a5.19283,5.19283 0 0 1 -2.56406,2.56406l-23.46839,10.72613c-2.70714,1.23732 -5.4972,-1.55274 -4.25989,-4.25989l10.72776,-23.47002a5.19283,5.19283 0 0 1 2.56406,-2.56406l23.46839,-10.72613c2.70714,-1.23569 5.49558,1.55274 4.25826,4.25989z"/>
  </g>
 </g>
</svg>
